<svg xmlns="http://www.w3.org/2000/svg" version="1.0" width="150px" height="100px" viewBox="25 45 150 100" preserveAspectRatio="xMidYMid meet">
 <g fill="#32170e">
  <path d="M99.12 130.72 c-4.20 -0.51 -8.22 -2.07 -11.29 -4.38 -3.48 -2.62 -6.78 -7.62 -7.99 -12.09 -0.21 -0.80 -0.47 -1.54 -0.57 -1.64 -0.21 -0.23 -1.68 2.87 -3.38 7.19 -1.58 3.98 -1.93 4.71 -2.73 5.55 -1.84 1.97 -3.67 1.60 -6.56 -1.31 -2.11 -2.13 -2.64 -3.14 -2.48 -4.82 0.27 -2.87 2.89 -8.93 6.11 -14.08 1.23 -1.97 5.49 -8.42 6.66 -10.10 0.35 -0.51 0.47 -0.80 0.31 -0.84 -0.12 -0.04 -0.59 -0.33 -1 -0.64 -0.72 -0.53 -0.80 -0.55 -1.07 -0.23 -0.16 0.18 -0.39 0.55 -0.53 0.82 -0.86 1.72 -6.46 11.43 -7.09 12.29 -0.57 0.76 -1.04 1.17 -1.84 1.52 -1.19 0.55 -1.95 0.53 -3.67 -0.06 -0.96 -0.31 -0.96 -0.31 -1.33 0.14 -1.33 1.70 -2.54 2.50 -3.77 2.52 -0.76 0 -2.62 -0.63 -3.69 -1.25 -0.45 -0.27 -1.19 -0.86 -1.64 -1.31 -0.63 -0.63 -0.86 -0.78 -1 -0.57 -0.27 0.45 -1.52 5.88 -1.76 7.62 -0.12 0.92 -0.29 1.93 -0.41 2.27 -0.21 0.70 -0.98 1.45 -1.91 1.93 -1.56 0.78 -4.71 -0.14 -6.45 -1.88 -2.34 -2.36 -2.36 -4.67 -0.12 -11.43 1.48 -4.43 3.18 -8.54 5.21 -12.54 1.05 -2.09 1.86 -3.87 1.80 -3.96 -0.31 -0.53 -3.40 0.39 -7.62 2.29 -2.68 1.19 -3.52 1.31 -4.80 0.64 -1.13 -0.57 -2.70 -2.09 -3.11 -3.01 -1.09 -2.40 0.16 -5.20 3.24 -7.25 1.58 -1.05 6.82 -2.52 12.70 -3.57 2.99 -0.55 9.67 -1.48 11.43 -1.62 0.57 -0.06 0.66 -0.14 0.63 -0.45 -0.04 -0.21 -0.12 -1.02 -0.18 -1.78 -0.08 -1.17 -0.04 -1.52 0.33 -2.25 0.78 -1.52 3.57 -3.89 4.59 -3.89 0.61 0 1.29 0.66 2.34 2.23 1.11 1.64 2.03 2.46 3.75 3.32 1.29 0.64 1.82 0.66 1.82 0.06 0 -0.70 0.94 -2.40 1.68 -3.07 0.80 -0.70 2.85 -1.76 4.38 -2.25 0.59 -0.20 1.48 -0.55 1.99 -0.80 0.49 -0.25 1.27 -0.51 1.70 -0.59 0.72 -0.12 0.86 -0.06 1.50 0.59 l0.72 0.72 -0.14 1.99 c-0.12 1.91 -0.35 3.81 -0.98 8.05 -0.51 3.48 -0.51 3.61 -0.16 3.61 0.16 0 1.31 -0.55 2.56 -1.21 3.77 -2.01 4.10 -2.17 5.18 -2.15 1.46 0 2.30 0.45 4.08 2.19 0.88 0.86 1.70 1.52 1.80 1.48 0.27 -0.10 2.95 -2.29 6.82 -5.59 7.58 -6.46 8.07 -6.84 8.81 -6.84 0.16 0 0.29 0.10 0.29 0.21 0 0.10 0.10 0.14 0.20 0.08 0.12 -0.06 0.20 -0.02 0.20 0.10 0 0.12 0.10 0.16 0.21 0.08 0.21 -0.12 3.75 3.32 4.30 4.20 l0.29 0.47 0.80 -0.53 c1.17 -0.78 1.97 -0.84 3.28 -0.23 0.61 0.27 1.37 0.72 1.70 1 0.31 0.27 0.64 0.49 0.70 0.49 0.08 0 0.53 -0.63 1.02 -1.39 1.05 -1.68 1.86 -2.34 2.99 -2.46 1.13 -0.14 2.11 0.39 3.87 2.03 1.62 1.52 1.93 2.07 1.93 3.28 0 1 -0.35 1.80 -2.03 4.55 -0.61 0.98 -1.09 1.88 -1.09 1.99 0 0.10 0.45 0.20 1.04 0.20 0.59 0 1.48 0.14 2.01 0.29 0.53 0.16 1.02 0.29 1.07 0.29 0.08 0 0.20 -0.41 0.27 -0.92 0.20 -1.41 0.55 -2.05 1.46 -2.85 1.19 -1.02 2.27 -1.19 6.54 -1.05 4 0.12 4.86 0.31 6.37 1.43 l1.02 0.74 0.51 -0.66 c0.82 -1.13 2.15 -2.30 3.11 -2.77 1.82 -0.86 4.80 -0.39 7.50 1.19 l1.31 0.76 1.23 -0.66 c1.52 -0.80 1.99 -0.82 3.16 -0.08 1.89 1.21 2.77 2.58 2.56 3.98 -0.37 2.19 -2.03 4.06 -4.69 5.31 l-1.37 0.63 -0.66 1.97 c-0.37 1.09 -1.21 3.09 -1.89 4.45 -0.88 1.78 -1.17 2.54 -1 2.64 0.14 0.08 0.78 0.16 1.45 0.16 3.20 0 6.13 0.76 7.81 2.05 2.44 1.86 2.62 2.87 1.07 6.05 -1.09 2.25 -2.42 3.87 -3.42 4.18 -0.35 0.10 -2.15 0.23 -4 0.29 -6.56 0.21 -13.07 1.58 -19.77 4.12 -2.89 1.11 -10.63 4.47 -16.11 7.01 -12.64 5.88 -22.21 8.52 -28.13 7.79z m5.43 -4.18 c5.84 -0.88 11.25 -2.87 26.99 -9.94 13.61 -6.11 20.43 -8.09 29.88 -8.63 2.70 -0.16 3.81 -0.29 4.04 -0.49 0.18 -0.16 0.64 -0.90 1.04 -1.64 0.57 -1.07 0.66 -1.43 0.49 -1.64 -1.15 -1.39 -6.60 -2.01 -11.60 -1.37 -4.43 0.59 -6.46 1.21 -12.81 4 -16.72 7.32 -29.55 11.97 -37.01 13.40 -2.46 0.47 -6.97 0.49 -8.69 0.02 -4.59 -1.23 -7.36 -4.20 -9.26 -9.92 -0.88 -2.68 -1.31 -5.16 -1.43 -8.38 l-0.10 -2.66 5.82 -4.80 c3.22 -2.66 7.34 -6.07 9.18 -7.62 1.86 -1.54 5.39 -4.45 7.87 -6.48 2.68 -2.19 4.51 -3.81 4.51 -4 0 -0.41 -1.31 -1.97 -1.62 -1.97 -0.14 0 -1.50 1.07 -3.07 2.40 -1.56 1.31 -4.38 3.65 -6.27 5.21 -1.89 1.56 -4.61 3.81 -6.04 4.98 -7.97 6.58 -7.89 6.52 -8.54 6.54 -0.63 0 -0.64 -0.04 -0.64 -0.76 0 -0.82 1 -2.44 3.95 -6.45 l1.37 -1.82 -0.57 -0.68 c-0.29 -0.37 -0.82 -0.84 -1.15 -1.05 l-0.63 -0.37 -1.43 0.78 c-3.36 1.84 -6.19 3.13 -7.60 3.46 -0.86 0.20 -2.36 0.33 -3.65 0.33 l-2.17 0.02 0.31 0.55 c0.20 0.31 0.80 1.07 1.37 1.70 1.27 1.41 2.34 1.89 3.48 1.58 0.43 -0.12 1.17 -0.21 1.70 -0.21 0.90 0 0.92 0.02 0.92 0.59 0 0.66 -0.27 1.09 -3.73 6.05 -3.96 5.66 -7.03 10.76 -9.24 15.33 -1.23 2.54 -2.46 5.74 -2.46 6.41 0 0.55 0.90 1.74 1.80 2.42 0.51 0.35 0.68 0.41 0.86 0.21 0.14 -0.14 0.74 -1.48 1.35 -2.99 1.50 -3.69 4.38 -9.59 6.23 -12.79 2.09 -3.61 2.32 -3.91 3.13 -3.91 l0.64 0 0.14 2.60 c0.37 7.09 1.82 11.64 4.88 15.47 3.38 4.24 8.61 6.68 14.34 6.72 1.11 0.02 2.66 -0.08 3.42 -0.20z m-1.25 -10.25 c1.13 -0.16 2.95 -0.53 4.02 -0.82 l1.95 -0.53 -1.46 -0.12 c-0.84 -0.08 -1.89 -0.31 -2.42 -0.53 l-0.92 -0.41 -0.59 0.66 c-0.68 0.76 -1.39 1.17 -2.91 1.66 -1 0.33 -1.02 0.35 -0.41 0.37 0.35 0.02 1.58 -0.12 2.73 -0.29z m-58.57 -3.14 c1.54 -6.88 3.52 -12.56 7.13 -20.49 2.48 -5.41 4.55 -9.41 4.92 -9.53 0.98 -0.27 8.54 -1.23 14.16 -1.78 0.98 -0.10 1.43 -0.23 1.80 -0.59 1.02 -0.94 0.47 -1.78 -1.62 -2.46 -2.52 -0.82 -4.30 -1.89 -6.02 -3.61 -1.58 -1.60 -1.62 -1.62 -1.91 -1.19 -0.16 0.23 -0.29 0.59 -0.29 0.80 0 0.57 1.25 2.09 2.44 2.95 0.96 0.68 1.07 0.84 1.07 1.46 l0 0.70 -2.09 0.23 c-5.84 0.68 -14.36 2.05 -18.61 2.99 -3.44 0.76 -7.09 1.88 -8.61 2.64 -0.92 0.45 -1.93 1.46 -1.93 1.91 0 0.14 0.20 0.43 0.45 0.66 l0.47 0.43 1.25 -0.57 c1.74 -0.78 5.76 -2.05 8.42 -2.64 2.87 -0.63 6.50 -1.17 6.88 -1.04 0.66 0.25 0.33 1.35 -1.72 5.39 -4.08 8.13 -6.89 15.18 -8.28 20.82 -0.66 2.70 -0.68 2.91 -0.21 3.52 0.41 0.49 1.46 1.27 1.78 1.27 0.08 0 0.31 -0.86 0.55 -1.89z m68.36 0.61 l1.86 -0.63 -0.68 -0.29 c-1.09 -0.47 -1.76 -0.49 -1.76 -0.08 0 0.37 -0.84 1.11 -1.70 1.52 -0.68 0.33 -0.68 0.35 -0.16 0.23 0.33 -0.06 1.43 -0.41 2.44 -0.76z m-12.66 -2.17 c0.27 -0.31 0.96 -1.23 1.50 -2.05 0.96 -1.43 1.05 -1.52 1.72 -1.52 0.57 0 0.88 0.18 1.72 0.96 0.55 0.53 1.39 1.15 1.84 1.39 l0.84 0.43 0.64 -0.63 c0.35 -0.33 1.11 -1.41 1.68 -2.36 1 -1.70 1.04 -1.74 1.76 -1.74 0.64 0 0.78 0.08 1.25 0.88 0.51 0.90 1.60 1.74 2.54 1.97 0.70 0.18 1.25 -0.39 2.58 -2.66 1.91 -3.28 1.93 -3.32 2.68 -3.32 0.55 0 0.70 0.10 0.92 0.63 0.63 1.52 2.73 3.09 4.14 3.09 2.66 0 11.66 -10.74 16.07 -19.14 0.55 -1.05 0.59 -1.07 1.50 -1.13 l0.92 -0.06 0 0.63 c0 0.41 -0.37 1.31 -1.07 2.50 -2.15 3.77 -4.20 8.75 -4.20 10.16 0 1.17 1.11 2.60 2.30 2.93 0.80 0.23 1.27 -0.20 2.38 -2.23 0.47 -0.86 1.33 -2.38 1.91 -3.36 1 -1.70 1.11 -1.82 1.70 -1.82 0.61 0 0.66 0.06 1.07 1.19 1.27 3.52 4.92 4.84 6.70 2.48 1.07 -1.43 3.89 -7.75 4.71 -10.55 0.31 -1.07 0.35 -1.13 1.15 -1.35 1.25 -0.33 2.62 -1.13 3.46 -2.07 0.43 -0.45 0.78 -0.92 0.78 -1.04 0 -0.27 -0.41 -0.23 -0.76 0.08 -0.72 0.63 -2.30 1.29 -3.09 1.29 -0.74 0 -0.82 -0.06 -1.02 -0.64 -0.39 -1.15 -1.88 -2.21 -3.77 -2.68 -0.78 -0.20 -0.98 -0.18 -1.68 0.18 -0.96 0.49 -1.56 1.25 -3.34 4.20 -1.97 3.26 -3.26 5.14 -5.33 7.83 -1.78 2.29 -1.84 2.34 -2.66 2.40 -0.82 0.06 -0.82 0.06 -0.82 -0.61 0 -0.80 1.48 -3.87 3.59 -7.46 0.82 -1.39 1.48 -2.64 1.48 -2.77 0 -0.43 -1.15 -1.58 -1.91 -1.88 -0.47 -0.20 -1.78 -0.35 -3.55 -0.43 -2.52 -0.12 -2.91 -0.08 -3.50 0.23 -0.37 0.20 -0.76 0.49 -0.86 0.66 -0.53 0.88 0.78 2.58 2.17 2.81 0.74 0.12 0.82 0.18 0.82 0.70 0 1.25 -2.34 4.36 -8.57 11.31 -4.04 4.51 -5.33 5.66 -6.37 5.66 -0.90 0 -1.07 -0.29 -1.07 -1.86 l0 -1.37 1.52 -0.92 c3.16 -1.89 6.84 -5.74 8.34 -8.77 0.66 -1.29 0.68 -1.39 0.39 -1.93 -0.51 -0.98 -2.68 -2.32 -3.77 -2.34 -1.04 0 -2.56 1.21 -4.36 3.52 -0.39 0.49 -2.05 2.77 -3.69 5.08 -1.66 2.30 -3.48 4.79 -4.06 5.53 -0.94 1.15 -1.13 1.31 -1.72 1.31 -0.64 0 -0.66 -0.02 -0.66 -0.78 0 -1.17 1.11 -3.87 3.59 -8.69 2.05 -3.98 6.72 -12.30 8.24 -14.71 0.37 -0.57 0.66 -1.15 0.66 -1.29 0 -0.29 -1.07 -1.29 -1.37 -1.29 -0.10 0 -0.39 0.29 -0.64 0.64 -0.74 0.98 -4.86 8.07 -8.40 14.43 -3.54 6.37 -4.34 7.60 -7.01 10.86 -1.72 2.07 -1.86 2.19 -2.54 2.19 -0.74 0 -0.74 0 -0.74 -0.80 0 -1.86 4.34 -10.41 10.33 -20.39 l2.36 -3.91 -0.72 -0.64 c-0.39 -0.35 -0.82 -0.61 -0.92 -0.57 -0.43 0.12 -2.85 4.14 -7.29 12.05 -3.81 6.80 -4.80 8.46 -6.78 11.19 -3.52 4.92 -3.95 5.41 -4.73 5.41 -0.66 0 -0.66 0 -0.66 -0.90 0 -1.37 1.41 -4.57 3.83 -8.79 0.68 -1.19 1.25 -2.25 1.25 -2.34 0 -0.12 -0.35 -0.39 -0.76 -0.63 l-0.76 -0.43 -0.68 1.02 c-3.30 5 -7.13 13.73 -6.68 15.23 0.27 0.86 1.91 2.30 2.66 2.30 0.16 0 0.53 -0.23 0.80 -0.53z m21.11 -0.72 c0.35 -0.16 0.80 -0.33 1.02 -0.41 0.37 -0.12 0.37 -0.14 -0.10 -0.49 -0.64 -0.51 -0.68 -0.49 -0.98 0.20 -0.14 0.33 -0.39 0.68 -0.57 0.78 -0.47 0.27 -0.06 0.23 0.63 -0.08z m-28.42 -4.20 c0.10 -0.06 0.21 -0.49 0.29 -0.94 0.06 -0.45 0.23 -0.98 0.41 -1.13 0.18 -0.18 0.31 -0.57 0.31 -0.86 0 -0.29 0.18 -0.74 0.39 -1 0.21 -0.25 0.39 -0.63 0.39 -0.82 0 -0.21 0.14 -0.51 0.29 -0.66 0.16 -0.18 0.29 -0.47 0.29 -0.68 0 -0.43 0.31 -1.11 0.70 -1.50 0.14 -0.14 0.33 -0.55 0.45 -0.90 0.10 -0.37 0.35 -0.84 0.59 -1.07 0.21 -0.21 0.41 -0.59 0.41 -0.80 0 -0.20 0.20 -0.55 0.41 -0.76 0.41 -0.37 0.41 -0.39 0.02 -0.29 -0.20 0.06 -0.57 0.37 -0.80 0.68 -0.23 0.31 -0.55 0.57 -0.68 0.57 -0.16 0 -0.41 0.21 -0.59 0.49 -0.18 0.27 -0.45 0.49 -0.59 0.49 -0.16 0 -0.41 0.21 -0.59 0.49 -0.18 0.27 -0.45 0.49 -0.61 0.49 -0.16 0 -0.37 0.18 -0.49 0.39 -0.12 0.21 -0.33 0.39 -0.49 0.39 -0.16 0 -0.39 0.18 -0.53 0.39 -0.14 0.21 -0.37 0.39 -0.51 0.39 -0.14 0 -0.29 0.14 -0.35 0.29 -0.08 0.16 -0.20 0.29 -0.29 0.29 -0.10 0 -0.43 0.27 -0.72 0.61 -0.53 0.59 -0.55 0.68 -0.39 1.72 0.29 1.93 1.07 5.16 1.54 6.37 l0.45 1.17 0.25 -1.84 c0.14 -1.02 0.33 -1.89 0.41 -1.95z m40.29 0.25 c0.12 -0.16 0.37 -0.27 0.57 -0.27 0.20 0 1.11 -0.35 2.05 -0.78 l1.70 -0.78 -0.41 -0.55 c-0.86 -1.21 -0.82 -1.23 -2.91 0.90 -1.04 1.05 -1.76 1.89 -1.56 1.84 0.18 -0.04 0.45 -0.20 0.57 -0.35z m-75.51 -2.75 c1.13 -1.76 1.19 -1.82 1.93 -1.82 0.53 0 0.92 0.16 1.33 0.49 0.88 0.74 2.09 1.31 2.50 1.17 0.57 -0.18 1.21 -1.25 7.97 -13.07 0.06 -0.10 0.02 -0.12 -0.10 -0.06 -0.10 0.06 -1.27 1.66 -2.60 3.55 -3.24 4.61 -3.57 4.98 -4.41 4.98 -0.66 0 -0.66 0 -0.66 -0.90 0 -1.23 0.98 -3.63 3.34 -8.24 1.05 -2.07 1.93 -3.89 1.93 -4.02 0 -0.33 -0.84 -0.90 -1.35 -0.90 -0.20 0 -0.64 0.31 -0.98 0.68 -0.66 0.76 -1.48 0.90 -2.36 0.39 -1.29 -0.72 -2.05 -0.20 -3.79 2.62 -3.01 4.86 -6.76 13.09 -6.76 14.79 0 0.84 1.60 2.29 2.44 2.19 0.23 -0.04 0.82 -0.72 1.56 -1.86z m50.76 -14.69 c0.45 -0.51 0.35 -0.94 -0.39 -1.50 -0.55 -0.43 -0.63 -0.43 -1.02 -0.16 -0.57 0.39 -0.55 0.88 0.06 1.52 0.57 0.61 0.90 0.64 1.35 0.14z m-30.27 -7.19 c0.06 -1.17 0.33 -3.73 0.61 -5.72 0.27 -1.99 0.49 -3.73 0.49 -3.85 0 -0.33 -1.88 0.37 -2.38 0.88 -0.66 0.64 -1.48 6.68 -1.13 8.34 0.23 1.13 1.25 2.44 1.89 2.44 0.35 0 0.41 -0.20 0.53 -2.09z"/>
  <path d="M126.95 97.07 c0 -1.33 2.13 -5.02 3.79 -6.60 0.98 -0.92 1.15 -1.02 1.95 -1.02 l0.90 0 0 0.96 c0 1.58 -1.64 4.10 -4.14 6.37 -0.96 0.84 -1.33 1.07 -1.86 1.07 -0.63 0 -0.64 -0.02 -0.64 -0.78z"/>
  <path d="M152.01 97.62 c-0.27 -0.45 -0.14 -3.14 0.23 -4.65 0.43 -1.76 1.41 -4.22 2.19 -5.57 0.68 -1.17 1.19 -1.31 2.60 -0.64 l0.96 0.45 0.02 1.05 c0 1.95 -2.11 7.29 -3.57 8.95 -0.49 0.55 -0.70 0.64 -1.41 0.64 -0.47 0 -0.92 -0.12 -1.02 -0.23z"/>
  <path d="M156.68 85.57 c-0.18 -0.10 -0.23 -0.49 -0.20 -1.11 l0.06 -0.96 0.98 0 0.98 0 0.06 1.13 0.06 1.11 -0.84 0 c-0.47 0 -0.96 -0.08 -1.09 -0.18z"/>
 </g>
 <g fill="#f7a334">
  <path d="M96.78 126.95 c-4.38 -0.92 -7.95 -3.07 -10.57 -6.35 -3.09 -3.83 -4.51 -8.38 -4.88 -15.51 l-0.14 -2.64 -0.43 0.51 c-1.45 1.68 -6.35 11.19 -8.50 16.48 -0.57 1.41 -1.17 2.75 -1.37 3.01 -0.33 0.43 -0.35 0.43 -1.04 0.10 -0.84 -0.39 -2.19 -1.68 -2.60 -2.50 -0.39 -0.72 -0.23 -1.64 0.64 -4.04 1.91 -5.12 5.74 -11.86 11.17 -19.61 1.35 -1.93 2.71 -3.91 3.01 -4.39 l0.55 -0.84 -0.64 0.12 c-3.01 0.55 -3.89 0.31 -5.49 -1.46 -1.11 -1.21 -2.19 -2.99 -2.01 -3.28 0.06 -0.10 1.19 -0.18 2.50 -0.18 1.58 0.02 2.87 -0.10 3.77 -0.31 1.31 -0.31 4.32 -1.68 7.48 -3.44 1.74 -0.94 2.42 -1 3.50 -0.21 0.80 0.59 1.62 1.70 1.62 2.21 0 0.14 -0.64 1.15 -1.45 2.21 -2.89 3.95 -4.65 6.72 -3.77 6 0.12 -0.12 1.35 -1.11 2.70 -2.23 1.35 -1.09 3.59 -2.95 4.98 -4.10 1.39 -1.15 4.16 -3.44 6.15 -5.08 1.99 -1.64 4.96 -4.10 6.60 -5.49 1.62 -1.37 3.05 -2.48 3.18 -2.48 0.41 0 1.56 1.04 2.11 1.89 0.47 0.74 0.53 0.96 0.35 1.43 -0.12 0.39 -1.58 1.70 -4.69 4.24 -2.48 2.01 -6 4.92 -7.85 6.46 -1.84 1.54 -5.96 4.96 -9.18 7.62 l-5.84 4.80 0.12 2.07 c0.35 6.72 2.81 12.87 6.21 15.57 1.09 0.86 2.91 1.74 4.47 2.15 1.64 0.43 5.16 0.43 7.52 -0.02 7.36 -1.39 20.27 -6.05 37.01 -13.40 6.35 -2.79 8.38 -3.42 12.81 -4 4.30 -0.57 9.80 -0.23 11.74 0.70 1.13 0.55 1.48 1.07 1.25 1.89 -0.25 0.82 -1.35 2.89 -1.76 3.22 -0.21 0.20 -1.35 0.33 -4.02 0.49 -9.45 0.55 -16.27 2.52 -29.88 8.63 -15.74 7.07 -21.15 9.06 -26.99 9.94 -2.21 0.33 -6.33 0.25 -8.36 -0.18z"/>
  <path d="M98.75 112.60 c-0.43 -0.16 -1.11 -0.63 -1.54 -1.04 -1.31 -1.31 -1.23 -2.60 0.39 -6.88 1.23 -3.26 3.54 -7.75 5.47 -10.68 0.57 -0.88 0.78 -1.04 1.27 -1.04 0.70 0 1.93 0.64 2.29 1.21 0.21 0.35 0.10 0.63 -0.88 2.38 -2.52 4.41 -4.47 8.57 -4.34 9.26 0.08 0.39 1.21 -1.02 4.18 -5.18 1.97 -2.73 2.97 -4.39 6.78 -11.19 4.55 -8.14 6.80 -11.82 7.38 -12.17 0.49 -0.31 1.27 0 2.15 0.82 0.64 0.63 0.76 0.86 0.66 1.23 -0.08 0.25 -1.27 2.34 -2.64 4.65 -4.45 7.48 -7.99 14.10 -9.47 17.66 -1.15 2.77 -0.96 2.75 1.45 -0.16 2.56 -3.07 3.67 -4.80 7.25 -11.25 3.98 -7.21 7.87 -13.79 8.55 -14.51 0.35 -0.37 0.63 -0.49 0.90 -0.41 0.66 0.20 1.66 1.04 1.97 1.66 0.31 0.59 0.31 0.59 -1.62 3.85 -3.11 5.21 -5.02 8.63 -7.38 13.22 -2.11 4.12 -3.69 7.73 -3.55 8.14 0.10 0.29 1.80 -1.88 5.23 -6.68 4.39 -6.15 5.55 -7.52 6.88 -8.22 2.36 -1.21 6.41 0.76 6.41 3.14 0 1.56 -3.18 6.07 -6.02 8.50 -0.82 0.72 -2.19 1.72 -3.01 2.21 -1.50 0.90 -1.52 0.92 -1.52 1.72 0 1.19 0.35 1.37 1.29 0.68 2.19 -1.62 11.19 -11.93 12.93 -14.80 l0.61 -1 -0.78 -0.14 c-1.52 -0.25 -2.40 -1.46 -2.29 -3.13 0.04 -0.76 0.16 -1.02 0.61 -1.35 0.53 -0.39 0.78 -0.41 4.10 -0.37 4 0.04 4.80 0.21 5.80 1.35 1 1.15 0.86 1.88 -0.90 4.86 -1.60 2.71 -3.65 6.74 -3.52 6.89 0.18 0.18 0.55 -0.23 2.34 -2.56 2.13 -2.79 3.26 -4.45 5.20 -7.66 1.80 -2.99 2.40 -3.73 3.38 -4.24 1.04 -0.53 2.60 -0.41 4.18 0.33 1.37 0.63 2.13 1.31 2.42 2.19 0.18 0.59 0.29 0.66 0.68 0.57 0.25 -0.08 0.88 -0.39 1.39 -0.70 1.91 -1.17 1.97 -1.19 2.40 -0.94 0.55 0.35 0.64 0.80 0.33 1.56 -0.51 1.21 -2.38 2.58 -4.18 3.07 -0.80 0.21 -0.84 0.27 -1.15 1.35 -0.82 2.79 -3.63 9.12 -4.71 10.55 -0.68 0.92 -1.52 1.29 -2.91 1.27 -2.27 -0.02 -4.12 -1.41 -4.96 -3.75 -0.25 -0.66 -0.51 -1.13 -0.59 -1.05 -0.16 0.16 -1.86 3.09 -3.24 5.57 -0.45 0.78 -1.04 1.56 -1.31 1.70 -1.15 0.61 -3.20 -0.29 -3.96 -1.76 -0.47 -0.92 -0.35 -2.75 0.33 -4.75 0.63 -1.84 2.73 -6.31 4 -8.50 0.61 -1.04 0.66 -1.21 0.35 -1.15 -0.21 0.04 -0.61 0.51 -0.94 1.13 -3.13 5.96 -8.83 13.54 -12.95 17.21 -1.97 1.76 -2.89 2.23 -4.12 2.03 -1.80 -0.27 -3.46 -1.46 -4.28 -3.09 -0.45 -0.90 -0.35 -1 -2.11 2.01 -1.72 2.97 -2.07 3.32 -3.22 3.32 -1.25 0 -2.48 -0.70 -3.28 -1.88 -0.37 -0.53 -0.72 -0.98 -0.80 -1.02 -0.08 -0.02 -0.57 0.66 -1.07 1.52 -1.33 2.29 -2.13 3.13 -3.03 3.13 -0.88 0 -2.38 -0.86 -3.44 -1.93 -0.41 -0.45 -0.84 -0.80 -0.92 -0.80 -0.08 0 -0.66 0.78 -1.31 1.74 -1.21 1.78 -1.97 2.56 -2.54 2.56 -0.18 -0.02 -0.66 -0.14 -1.07 -0.29z m31.05 -17.32 c1.21 -1.29 2.13 -2.50 2.70 -3.55 1.02 -1.91 0.47 -2.23 -1.17 -0.66 -1.23 1.15 -3.79 5.23 -3.79 6.02 0 0.29 1.21 -0.68 2.27 -1.80z m24.04 1.35 c0.84 -0.96 2.11 -3.55 2.89 -5.86 0.90 -2.66 0.88 -2.89 -0.10 -3.30 -0.43 -0.18 -0.86 -0.35 -0.94 -0.37 -0.41 -0.12 -2.27 3.96 -2.85 6.35 -0.33 1.37 -0.45 3.24 -0.21 3.61 0.21 0.37 0.63 0.23 1.21 -0.43z m4.12 -11.99 c-0.04 -0.39 -0.18 -0.55 -0.45 -0.55 -0.45 0 -0.64 0.66 -0.25 0.90 0.51 0.33 0.76 0.20 0.70 -0.35z"/>
  <path d="M107.21 90.33 c-0.55 -0.29 -1.15 -1.37 -1.15 -2.03 0 -0.66 0.86 -1.39 1.64 -1.39 0.51 0 0.86 0.18 1.37 0.66 0.92 0.84 0.96 1.66 0.14 2.48 -0.63 0.63 -1.21 0.70 -1.99 0.27z"/>
 </g>
 <g fill="#fefefd">
  <path d="M43.26 115.45 c-0.45 -0.20 -1.05 -0.64 -1.35 -1.02 -0.51 -0.61 -0.55 -0.74 -0.45 -1.86 0.43 -4.55 4.06 -14.30 8.93 -23.89 1.05 -2.09 1.89 -3.87 1.86 -3.95 -0.06 -0.06 -0.86 0 -1.80 0.14 -4.39 0.68 -9.57 2.11 -12.81 3.54 -1.45 0.63 -1.64 0.66 -2.07 0.43 -1.29 -0.74 -1.46 -1.93 -0.47 -3.13 1.25 -1.48 6.25 -3.05 14.61 -4.57 2.97 -0.55 10.64 -1.68 14.02 -2.09 1.15 -0.14 2.09 -0.29 2.09 -0.35 0 -0.06 -0.49 -0.45 -1.07 -0.88 -1.17 -0.86 -2.34 -2.25 -2.54 -3.07 -0.18 -0.72 0.20 -1.74 0.86 -2.38 l0.57 -0.55 0.45 0.55 c0.25 0.31 1.07 1.19 1.84 1.93 1.48 1.48 3.42 2.62 5.78 3.40 1.89 0.63 2.56 1.41 2.25 2.68 -0.23 0.92 -1 1.41 -2.42 1.54 -5.63 0.55 -13.18 1.50 -14.16 1.78 -0.61 0.18 -5.37 10.12 -7.83 16.35 -1.54 3.89 -2.85 7.91 -3.54 10.88 -1.11 4.67 -1.15 4.79 -1.56 4.82 -0.21 0.04 -0.74 -0.10 -1.17 -0.31z"/>
  <path d="M55.27 106.52 c-1.46 -0.64 -2.25 -1.82 -2.05 -3.05 0.64 -3.77 6.86 -16.21 8.79 -17.60 0.72 -0.53 2.05 -0.55 2.99 -0.06 l0.63 0.33 0.61 -0.68 c0.66 -0.76 1.54 -1.04 2.36 -0.72 0.76 0.29 1.33 0.92 1.33 1.48 0 0.27 -0.92 2.27 -2.03 4.45 -2.03 3.96 -3.44 7.19 -3.44 7.87 0.02 0.59 1.15 -0.78 3.87 -4.67 1.33 -1.88 2.58 -3.57 2.77 -3.75 0.35 -0.31 0.41 -0.33 0.88 -0.02 0.27 0.18 0.49 0.47 0.49 0.66 0 0.33 -5.86 10.70 -7.17 12.68 -0.37 0.57 -0.86 1.07 -1.09 1.15 -0.96 0.33 -2.36 -0.14 -3.61 -1.19 -0.31 -0.27 -0.66 -0.49 -0.74 -0.49 -0.10 0 -0.53 0.55 -0.94 1.23 -1.80 2.81 -2.13 3.03 -3.63 2.36z"/>
  <path d="M77.05 84.88 c-1.88 -0.84 -2.23 -3.38 -1.27 -9.30 0.31 -1.91 0.45 -2.30 0.88 -2.68 0.53 -0.47 2.95 -1.31 3.24 -1.11 0.27 0.18 0.21 1.45 -0.31 5.43 -0.27 2.05 -0.57 4.65 -0.64 5.78 l-0.14 2.05 -0.59 0.04 c-0.31 0.04 -0.84 -0.06 -1.17 -0.21z"/>
 </g>
 <g fill="#020201">
  <path d="M98.44 116.91 c-3.36 -0.72 -5.70 -3.18 -7.23 -7.64 -0.47 -1.37 -1.31 -5.25 -1.46 -6.84 -0.10 -1.11 -0.08 -1.21 0.49 -1.80 0.31 -0.35 0.66 -0.64 0.76 -0.64 0.10 0 0.21 -0.14 0.29 -0.29 0.06 -0.16 0.21 -0.29 0.35 -0.29 0.14 0 0.37 -0.18 0.51 -0.39 0.14 -0.21 0.37 -0.39 0.53 -0.39 0.16 0 0.37 -0.18 0.49 -0.39 0.12 -0.21 0.33 -0.39 0.49 -0.39 0.16 0 0.43 -0.21 0.61 -0.49 0.18 -0.27 0.43 -0.49 0.59 -0.49 0.14 0 0.41 -0.21 0.59 -0.49 0.18 -0.27 0.43 -0.49 0.59 -0.49 0.14 0 0.45 -0.27 0.70 -0.59 0.23 -0.33 0.55 -0.59 0.68 -0.59 0.14 0 0.39 -0.21 0.57 -0.49 0.18 -0.27 0.43 -0.49 0.59 -0.49 0.14 0 0.45 -0.25 0.70 -0.59 0.23 -0.31 0.55 -0.59 0.68 -0.59 0.16 0 0.31 -0.14 0.37 -0.29 0.18 -0.45 0.86 -0.37 0.86 0.10 0 0.21 -0.14 0.39 -0.31 0.39 -0.16 0 -0.23 0.08 -0.18 0.20 0.06 0.10 -0.10 0.41 -0.35 0.66 -0.27 0.27 -0.45 0.53 -0.41 0.57 0.04 0.04 -0.12 0.29 -0.35 0.57 -0.25 0.27 -0.47 0.63 -0.51 0.76 -0.04 0.16 -0.20 0.37 -0.33 0.49 -0.16 0.12 -0.23 0.27 -0.16 0.33 0.06 0.08 0 0.14 -0.14 0.14 -0.14 0 -0.21 0.06 -0.14 0.12 0.16 0.18 -0.41 1.25 -0.66 1.25 -0.12 0 -0.14 0.10 -0.08 0.20 0.06 0.12 0.02 0.20 -0.08 0.20 -0.12 0 -0.20 0.06 -0.18 0.16 0.08 0.23 -0.47 1.41 -0.66 1.41 -0.10 0 -0.12 0.10 -0.06 0.20 0.06 0.12 0.02 0.20 -0.10 0.20 -0.12 0 -0.16 0.10 -0.10 0.20 0.06 0.12 0.02 0.20 -0.10 0.20 -0.12 0 -0.18 0.08 -0.10 0.18 0.14 0.23 -0.29 1.19 -0.53 1.19 -0.10 0 -0.14 0.08 -0.06 0.18 0.14 0.23 -0.29 1.19 -0.53 1.19 -0.10 0 -0.12 0.08 -0.06 0.20 0.06 0.12 0.02 0.20 -0.10 0.20 -0.12 0 -0.18 0.08 -0.12 0.18 0.14 0.21 -0.25 1.39 -0.49 1.39 -0.08 0 -0.12 0.14 -0.06 0.29 0.08 0.16 0.04 0.29 -0.04 0.29 -0.10 0 -0.20 0.27 -0.20 0.63 -0.02 0.35 -0.12 0.66 -0.23 0.70 -0.10 0.02 -0.16 0.23 -0.10 0.43 0.06 0.21 0.02 0.39 -0.06 0.39 -0.33 0 -0.39 2.66 -0.06 3.05 0.12 0.16 0.18 0.27 0.10 0.27 -0.23 0 0.49 1.19 1.17 1.95 1.50 1.68 4.08 2.73 5.61 2.32 0.41 -0.12 1.09 -0.37 1.48 -0.59 0.78 -0.41 1.86 -1.43 1.74 -1.64 -0.02 -0.10 0.08 -0.23 0.25 -0.35 0.23 -0.14 0.63 -0.04 1.56 0.43 1.74 0.86 2.93 0.98 4.28 0.41 1.05 -0.45 2.17 -1.29 2.09 -1.56 -0.02 -0.08 0.18 -0.31 0.43 -0.53 0.47 -0.37 0.47 -0.37 1.66 0.12 2.15 0.88 4.26 0.51 5.82 -1.02 0.45 -0.45 0.80 -0.88 0.78 -0.96 -0.02 -0.10 0.06 -0.16 0.18 -0.16 0.10 0 0.14 -0.08 0.08 -0.20 -0.06 -0.10 -0.02 -0.20 0.12 -0.20 0.14 0 0.18 -0.06 0.12 -0.14 -0.08 -0.06 0.04 -0.23 0.25 -0.39 0.33 -0.23 0.51 -0.20 1.43 0.29 0.59 0.31 1.25 0.61 1.46 0.66 0.68 0.18 0.51 0.51 -0.49 0.96 -1.95 0.86 -2.17 0.96 -2.44 0.96 -0.16 0 -0.35 0.08 -0.45 0.16 -0.12 0.10 -0.72 0.33 -1.37 0.53 -0.64 0.18 -1.43 0.45 -1.76 0.59 -0.31 0.16 -1.95 0.70 -3.61 1.23 -8.13 2.62 -12.50 3.38 -15.63 2.70z"/>
  <path d="M101.37 91.91 c0 -0.16 0.08 -0.33 0.18 -0.41 0.12 -0.06 0.18 0.08 0.16 0.29 -0.02 0.45 -0.33 0.55 -0.33 0.12z"/>
 </g>
 <g fill="#9d2b08">
  <path d="M127.87 109.61 c0.23 -0.18 0.98 -0.68 1.66 -1.11 1.62 -1.02 1.41 -0.82 4.28 -3.67 1.41 -1.39 2.62 -2.48 2.70 -2.44 0.10 0.04 0.63 0.61 1.17 1.27 0.90 1.07 1 1.27 0.80 1.62 -0.23 0.45 -3.28 1.95 -3.91 1.95 -0.21 0 -0.43 0.10 -0.49 0.20 -0.16 0.23 -1.39 0.78 -1.80 0.78 -0.14 0 -0.51 0.18 -0.80 0.39 -0.29 0.21 -0.80 0.43 -1.13 0.45 -0.33 0.04 -0.70 0.14 -0.82 0.21 -0.12 0.08 -0.64 0.25 -1.15 0.41 -0.90 0.25 -0.92 0.25 -0.51 -0.06z"/>
  <path d="M58.07 99.36 c0.16 -1.13 1.21 -3.57 3.01 -6.93 1.66 -3.07 2.13 -3.67 2.79 -3.46 0.33 0.10 0.39 0.23 0.31 0.59 -0.18 0.66 -3.46 6.89 -4.65 8.79 -1.23 1.97 -1.64 2.25 -1.46 1.02z"/>
  <path d="M101.37 91.95 c0 -0.14 0.16 -0.43 0.33 -0.64 l0.31 -0.39 -0.16 0.39 c-0.08 0.21 -0.16 0.51 -0.16 0.64 0 0.12 -0.08 0.23 -0.18 0.23 -0.08 0 -0.16 -0.12 -0.16 -0.23z"/>
  <path d="M46.48 89.08 c0 -0.23 0.55 -0.43 0.68 -0.23 0.06 0.10 -0.04 0.23 -0.21 0.29 -0.41 0.16 -0.47 0.16 -0.47 -0.06z"/>
 </g>
</svg>